PathFileType	4	(X/Y/Z)	D:\TRACE\spot_10-12-23\spot_arm_body_motion_2_1-platform.trc
DataRate	CameraRate	NumFrames	NumMarkers	Units	OrigDataRate	OrigDataStartFrame	OrigNumFrames
100.00	100.00	      67	5	mm	100.00	2626	      7000
Frame#	Time	Left_Front			Right_Front			Left_Aft			Right_Aft			Post			
		X1	Y1	Z1	X2	Y2	Z2	X3	Y3	Z3	X4	Y4	Z4	X5	Y5	Z5	

2626	26.250	-764.93170	-1.99858	-654.79712	802.42767	-3.61161	-630.07959	-696.27356	20.95298	483.71313	710.99957	21.11676	586.00671	24.08103	719.68732	-981.08484	
2627	26.260	-764.01172	-0.21097	-654.26593	803.58362	-2.00328	-629.59406	-695.27759	19.82012	484.16748	712.13153	19.70292	586.23267	24.77731	721.91791	-979.21619	
2628	26.270	-762.62518	0.96788	-653.97656	804.59882	-0.33793	-629.28107	-694.11359	18.57205	484.61389	713.28186	18.34712	586.63892	25.15385	724.30011	-977.35895	
2629	26.280	-761.40692	2.67267	-653.79108	805.73303	1.19079	-628.93622	-692.82751	17.61865	484.94730	714.31769	17.19005	587.30054	27.09454	726.93457	-975.16565	
2630	26.290	-760.60181	4.62866	-653.17010	806.85345	2.95944	-628.58435	-691.81067	16.55008	485.39072	715.27338	15.93450	587.69910	27.29698	729.35846	-972.85114	
2631	26.300	-759.49402	6.28403	-652.59155	807.86316	4.67042	-628.14862	-690.77112	15.36609	485.67047	716.04315	14.57641	588.18262	28.04661	731.72443	-970.61414	
2632	26.310	-758.60962	7.82179	-652.26343	808.94421	6.21976	-627.70868	-689.87769	14.27926	486.24603	716.84229	13.07583	588.59100	29.28368	734.14410	-968.31555	
2633	26.320	-757.54480	9.25076	-651.85840	809.78973	7.51261	-627.41821	-688.65228	13.09466	486.62582	718.24097	12.00884	589.07825	30.16425	736.60223	-965.82629	
2634	26.330	-756.42615	11.04677	-651.62567	810.96661	9.30122	-627.05841	-687.62915	12.06119	487.12646	719.25024	10.63675	589.45343	31.13703	738.95630	-963.30865	
2635	26.340	-755.30432	12.55888	-651.06458	812.02930	10.90699	-626.61487	-686.48688	10.93091	487.50253	720.32837	9.41527	589.82507	32.37103	741.35687	-960.80005	
2636	26.350	-754.29285	14.20471	-650.64313	813.08173	12.52560	-626.27997	-685.52191	9.99237	487.76422	721.50323	8.08425	590.07690	33.47814	743.62036	-958.17590	
2637	26.360	-753.53046	15.89541	-650.36011	813.11987	13.09563	-626.48627	-684.65674	8.93166	488.21146	722.71881	7.06369	590.56012	34.22635	745.78027	-955.49603	
2638	26.370	-752.50220	17.22447	-650.02222	814.48633	15.09628	-625.83490	-683.63855	7.87649	488.43765	723.41766	5.70933	590.97382	34.93121	747.92365	-952.91339	
2639	26.380	-751.40277	18.90704	-649.64508	815.51282	16.58880	-625.44910	-682.69550	6.86186	488.77884	724.40466	4.51395	591.16064	36.03617	750.12817	-950.59064	
2640	26.390	-750.31750	20.28111	-649.21179	816.69580	18.20619	-624.92212	-681.36652	5.75938	489.19907	725.30347	3.37982	591.40637	37.49279	752.36432	-948.59119	
2641	26.400	-749.59631	21.60391	-648.77258	817.85944	19.97437	-624.41736	-680.62872	4.81985	489.64474	726.55768	2.25685	592.00293	38.17873	754.44238	-946.77386	
2642	26.410	-748.77905	23.23449	-648.47980	818.85370	21.36478	-623.99310	-679.57208	3.73714	489.99854	727.50238	1.06780	592.43250	39.26071	756.78271	-945.29657	
2643	26.420	-747.76990	24.72220	-647.82233	819.77966	22.61197	-623.62427	-678.73407	2.65787	490.25400	728.21143	-0.56781	592.79370	40.10274	758.96179	-943.49176	
2644	26.430	-746.77448	26.31012	-647.41479	820.61774	24.43536	-623.23383	-677.81543	1.44687	490.81519	729.28650	-1.87393	592.97034	40.99243	761.28131	-941.88269	
2645	26.440	-745.94849	27.96975	-647.17200	821.49268	26.13648	-622.79926	-676.94073	0.46590	491.05548	730.12091	-3.11880	593.25342	41.92367	763.69397	-940.51776	
2646	26.450	-745.09827	29.49402	-646.79926	822.48157	27.76590	-622.14618	-676.09332	-0.72549	491.32870	730.92877	-4.50546	593.77008	42.65983	766.06915	-939.07813	
2647	26.460	-744.31104	31.33166	-646.28937	823.36633	29.46357	-621.88104	-675.14587	-1.81020	491.72934	731.91815	-5.69168	594.20673	43.24363	768.49219	-937.10229	
2648	26.470	-743.38513	32.82593	-645.66205	824.04669	30.93898	-621.35327	-674.41711	-2.90960	492.27463	732.92615	-6.91652	594.60767	44.53268	770.81189	-935.20435	
2649	26.480	-742.66223	34.51082	-645.10272	824.85828	32.80175	-620.85846	-673.66858	-4.10764	492.54538	733.33752	-8.55218	594.82343	45.12792	773.14972	-933.06537	
2650	26.490	-741.96240	36.27682	-644.82086	825.69397	34.24164	-620.40021	-672.89130	-5.32903	493.10291	734.26318	-9.82890	595.20026	45.65509	775.39844	-930.92523	
2651	26.500	-741.13141	37.59591	-644.45526	826.53229	35.62112	-619.93152	-671.99280	-6.37351	493.38751	735.18597	-10.83301	595.41882	46.43206	777.67719	-928.51526	
2652	26.510	-740.26068	38.85662	-643.92865	827.32501	37.29207	-619.71448	-671.34387	-7.25309	493.49606	736.03467	-12.18279	595.81573	47.24361	779.83380	-925.90656	
2653	26.520	-739.75781	40.38081	-643.32654	827.78137	38.56239	-619.29309	-670.50024	-8.34939	493.96115	736.44885	-13.39452	595.81622	47.86097	781.72461	-923.25305	
2654	26.530	-738.98254	41.74067	-643.03973	828.59424	39.92284	-618.75055	-669.99042	-9.09867	494.14883	737.16125	-14.41855	596.47546	48.41472	783.55554	-920.46210	
2655	26.540	-738.30225	43.18945	-642.84106	829.15497	41.00707	-618.40283	-669.33356	-10.12944	494.39194	737.90002	-15.54218	596.66370	49.26475	785.38428	-917.58032	
2656	26.550	-737.70056	44.42686	-642.62720	829.58655	42.18085	-618.09595	-668.68225	-11.01927	494.78665	738.40082	-16.47337	596.92633	49.79659	787.24414	-915.12756	
2657	26.560	-737.07568	45.72004	-642.07080	830.49768	43.65040	-617.66522	-667.96747	-11.91400	494.97290	739.06561	-17.61710	597.19452	50.37442	789.12616	-912.71942	
2658	26.570	-736.34357	47.00967	-641.60718	830.98047	44.99686	-617.31268	-667.39117	-12.89309	495.24033	739.69867	-18.75036	597.43451	51.00854	791.00085	-910.53235	
2659	26.580	-735.85986	48.37959	-641.24170	831.34845	46.35874	-617.09619	-667.00122	-13.62488	495.55405	740.22754	-19.79477	597.76831	51.52478	792.83752	-908.96631	
2660	26.590	-735.16669	49.47352	-640.95807	831.93817	47.47005	-616.56726	-666.23236	-14.77143	495.94733	740.60840	-20.98616	597.99927	51.85445	794.63336	-907.94806	
2661	26.600	-734.97217	51.04241	-640.32819	832.57178	48.93867	-616.00049	-665.97156	-15.59093	496.21255	741.08411	-22.27861	598.35956	52.26319	796.49017	-906.39941	
2662	26.610	-734.57513	52.42787	-640.17389	832.89618	50.23702	-615.69586	-665.43774	-16.73090	496.55405	741.57117	-23.19456	598.60919	52.79313	798.46021	-905.46271	
2663	26.620	-734.14526	53.73321	-639.74469	833.47693	51.64683	-615.28186	-665.17883	-17.48731	496.56741	742.09363	-24.21803	598.82648	53.32110	800.43085	-904.25055	
2664	26.630	-733.86737	54.94537	-639.19977	833.36371	52.45983	-614.89783	-664.73926	-18.53496	497.02762	742.26233	-25.50683	599.07556	53.37751	802.30853	-902.88464	
2665	26.640	-733.48486	56.32009	-638.73364	834.05414	54.24835	-614.38501	-664.43921	-19.27796	497.23096	742.58026	-26.53846	599.10864	53.51590	804.13293	-901.42047	
2666	26.650	-733.22491	57.24236	-638.35931	834.24298	55.43107	-614.09863	-664.15320	-20.17889	497.45465	742.89850	-27.38317	599.53790	54.07584	805.90613	-899.79327	
2667	26.660	-733.02844	58.47002	-637.91351	834.39386	56.36263	-613.76819	-663.90991	-21.18252	497.75964	743.02783	-28.36230	599.65973	54.03955	807.46948	-898.00159	
2668	26.670	-732.88855	59.34415	-637.63751	834.65118	57.50666	-613.42987	-663.92780	-21.71820	497.99500	743.14221	-29.28771	599.80560	54.23426	808.91071	-895.98212	
2669	26.680	-732.82336	60.63418	-637.31519	834.79547	58.46109	-613.04474	-663.71484	-22.29008	498.13318	743.34796	-30.32203	599.99835	54.50339	810.13556	-893.79797	
2670	26.690	-732.71136	61.44420	-637.15234	834.65497	59.31793	-612.76935	-663.63525	-23.05740	498.27823	743.50653	-30.75705	600.26447	54.29783	811.60150	-891.80579	
2671	26.700	-732.77814	62.42495	-636.66425	834.80469	60.29321	-612.44397	-663.71582	-23.88716	498.56885	743.34473	-31.67988	600.47003	54.18394	812.78033	-889.87762	
2672	26.710	-732.64880	63.15118	-636.46942	834.79535	61.15076	-612.12244	-663.82031	-24.43313	498.74860	743.42664	-32.56898	600.60522	54.27642	813.95447	-887.97687	
2673	26.720	-732.71527	64.36282	-636.17743	834.73267	61.95919	-611.86890	-663.70227	-24.94946	498.92639	743.18524	-33.31945	600.30078	54.45576	815.37195	-886.38385	
2674	26.730	-732.67419	65.06176	-636.01013	834.79108	62.98919	-611.60901	-663.60236	-25.63805	499.12793	743.41602	-33.97478	600.89911	54.49492	816.45313	-885.78711	
2675	26.740	-732.76685	66.09029	-635.54626	834.80676	63.96008	-611.35699	-663.62366	-26.43345	499.29492	743.31915	-34.74180	601.33899	54.36797	817.85077	-885.19568	
2676	26.750	-732.83118	66.89606	-635.30280	834.38086	64.56025	-611.14124	-663.86841	-26.82326	499.37784	743.18188	-35.57419	601.26355	54.35405	819.12891	-884.74988	
2677	26.760	-733.10449	67.79403	-634.89032	834.32965	65.51108	-610.77893	-663.94855	-27.73110	499.54883	742.91840	-36.25820	600.89459	54.10425	820.36334	-884.36804	
2678	26.770	-733.32245	68.85708	-634.72998	834.12903	66.62524	-610.47028	-664.23975	-28.28337	499.71786	742.87976	-36.90677	601.71167	53.67176	821.58575	-883.73438	
2679	26.780	-733.61499	69.85412	-634.49591	833.53009	66.96879	-610.31940	-664.56158	-28.64631	499.82291	742.51758	-37.74225	601.82550	53.28389	822.75732	-882.77258	
2680	26.790	-733.76868	70.12068	-634.37726	833.17719	67.45145	-610.13763	-664.96149	-29.05185	499.87488	742.15985	-38.22095	601.73218	53.06118	823.82452	-881.98859	
2681	26.800	-734.51190	70.66531	-634.12268	832.76624	67.94357	-609.93304	-665.42133	-29.58838	499.92322	741.72186	-38.62933	601.83478	52.72303	824.65179	-880.87860	
2682	26.810	-734.81543	71.28103	-633.91510	832.18805	68.57388	-609.77466	-665.80829	-30.10036	499.99457	741.30237	-39.19600	602.18420	52.47439	825.34302	-880.01636	
2683	26.820	-735.23755	71.96838	-633.74896	831.83344	68.99691	-609.57336	-666.14105	-30.56207	500.17764	740.81030	-39.76787	602.20349	51.76087	825.93774	-879.06067	
2684	26.830	-735.52075	72.40140	-633.66077	831.89386	69.87811	-609.23242	-666.54602	-30.90895	500.28897	740.51740	-40.22656	602.08844	51.65658	826.58276	-878.41211	
2685	26.840	-735.91437	73.24400	-633.53387	831.56812	70.37695	-609.07404	-666.79272	-31.18461	500.37671	740.34723	-40.79062	602.40320	51.26275	827.69696	-877.40668	
2686	26.850	-736.40564	73.71820	-633.19263	831.50470	71.49223	-608.74701	-667.13330	-31.38130	500.50912	740.04962	-41.00790	602.48755	50.83015	828.17371	-876.72607	
2687	26.860	-736.76843	74.02009	-633.02362	830.95416	71.91788	-608.63580	-667.61719	-31.76497	500.62912	739.59637	-41.39693	602.83636	50.28074	828.75476	-875.51318	
2688	26.870	-736.97821	73.95731	-632.97308	830.04413	71.77388	-608.74921	-668.23834	-32.22330	500.67130	739.02722	-42.05758	602.86206	50.00729	829.23120	-874.70361	
2689	26.880	-737.66284	74.68769	-632.75287	829.64740	72.09118	-608.57526	-668.65027	-32.54664	500.68231	738.50195	-42.35202	602.65527	49.05516	829.81219	-873.70154	
2690	26.890	-738.10242	75.18934	-632.70111	829.15094	72.42958	-608.45135	-669.00970	-32.65755	500.77310	737.79248	-42.44342	601.99860	48.75218	830.65546	-873.18091	
2691	26.900	-738.81787	75.68824	-632.56024	828.46674	72.95193	-608.36835	-669.57770	-32.87419	500.85349	737.70703	-42.55454	602.98773	48.19793	831.09576	-872.28418	
2692	26.910	-739.35077	75.92856	-632.43854	828.00439	73.12384	-608.21686	-670.14014	-33.19242	500.86780	737.10950	-43.02540	603.08075	47.61011	831.46875	-871.68878	
